<?xml version="1.0" encoding="utf-8"?>
<!-- Generator: Adobe Illustrator 15.0.0, SVG Export Plug-In . SVG Version: 6.00 Build 0)  -->
<!DOCTYPE svg PUBLIC "-//W3C//DTD SVG 1.1//EN" "http://www.w3.org/Graphics/SVG/1.1/DTD/svg11.dtd">
<svg version="1.1" id="Layer_1" xmlns="http://www.w3.org/2000/svg" xmlns:xlink="http://www.w3.org/1999/xlink" x="0px" y="0px"
	 width="155.264px" height="237.574px" viewBox="0 0 155.264 237.574" enable-background="new 0 0 155.264 237.574"
	 xml:space="preserve">
<g id="Layer_1_1_">
	<path fill="#C2CEDA" d="M154.436,189.921c-1.964-9.295-3.313-12.954-7.227-19.357c3.894-8.03,7.522-21.47,8.054-30.763
		c1.94-34.09-19.531-44.807-24.473-39.812c-12.765,12.906,7.211,14.053,3.736,32.45c-4.472-16.206-13.924-25.537-13.924-25.537
		c6.249-3.83,9.117-8.75,11.854-15.433c10.396-25.396-8-89.443-18.554-91.291C99.019-2.426,80.777,24.328,80.777,24.328
		c-12.758-2.505-24.258-2.755-35.938,1.66c0,0-26.517-24.515-35.681-17.958C-3.48,17.073-1.536,82.573,5.945,96.54
		c8.578,16.017,13.958,15.149,13.958,15.149c-16.883,28.885-7.509,48.188-7.509,48.188c-22.237,42.815-8.362,47.789-3.575,54.173
		c0.295,0.396,0.654-1.188,1.063-0.759c-1.718,1.943-2.775,6.158-2.694,7.976c0.333,7.485,14.833,5.955,14.833,6.057
		c0,8.976,10.409,10.25,23.25,10.25c10.885,0,23.021-0.92,25.551-6.664c3.23,0.144,0.603,0.228,4.148,0.228
		c0.617,0,1.23-0.015,1.846-0.021c2.658,5.563,14.702,6.459,25.455,6.459c12.841,0,23.25-1.274,23.25-10.25
		c0-0.662,5.176-0.916,8.396-0.916c7.857,0,14.104-1.334,15.229-6.75c0.318-1.541,0.27-4.44-1.039-6.178
		C153.634,207.199,156.886,201.521,154.436,189.921z"/>
</g>
<g id="Layer_2">
	<path fill="#FFFFFF" d="M11.521,13.106c8.002-7.803,27.667,16,27.667,16s-7,2.667-7.667,5.333s3.666-5.333,29.333-6
		s36,3.667,36,3.667s-0.25-3.25-9-5.667c0,0,12.831-22.764,23.667-20.667c13.494,2.611,27,68.667,14,87.333s-37.68,23.545-52.667,25
		c-34.333,3.333-50.667-6.5-59.333-18.667C1.088,81.986,3.864,20.573,11.521,13.106z"/>
	<path fill="#FFFFFF" d="M25.52,117.406c0,0,16.666,7.333,43,6.333s47.667-13.164,47.667-13.164s16.275,17.83,12.806,45.83
		c-3.471,28-11.806,64-11.806,64s5.801,11.449-15,12c-24.84,0.658-19.333-10.332-19.333-10.332s5.688-26.875,4-28.334
		c-3.956-3.416-10.367,30.666-10.367,30.666l-5.967,0.334c0,0-9.459-31.234-12-30.666c-4.476,1,5.667,27.666,5.667,27.666
		s6.666,12.834-21,11.688c-22.261-0.923-14.667-12.354-14.667-12.354s-10.854-46.048-12.25-67.75
		C14.836,131.012,19.52,119.74,25.52,117.406z"/>
	<path fill="#FFFFFF" d="M136.187,159.406c0,0,2.666,5.334,5.333,10.334s17,31.334-0.166,42.666c0,0,3.166,3.668,1.999,6.002
		c-1.959,3.914-17.499,2.332-17.499,2.332s-3.219-1.38-2.834-5C124.744,199.505,133.184,161.933,136.187,159.406z"/>
	<path fill="#FFFFFF" d="M12.52,168.406l10.333,50.5l-1,3.15c0,0-7.083,0.378-8.943-2c-2.14-2.732,2.542-6.408,1.61-7.65
		c-3-4-11.844-5.466-9-20.332C8.363,177.207,12.52,168.406,12.52,168.406z"/>
	<path fill="#FFFFFF" d="M133.325,104.275c7.128-6.743,18.336,13.593,18.336,29.695c0,18.834-6.582,31-6.582,31l-7.56-11.333
		c-0.136-8.063-0.972-11.333-0.972-11.333s2.739-3.339,2.306-16.333C138.52,115.975,126.067,111.141,133.325,104.275z"/>
</g>
<g id="Layer_3">
	<path fill="#7799B2" d="M103.201,82.022c0,6.609-6.436,11.967-9.651,11.967c-2.854,0-9.65-5.357-9.65-11.967
		c0-6.608,6.644-11.967,9.65-11.967c1.402,0,5.053,2.48,5.053,2.48c-5.697,3.002-2.447,8.91,4.187,6.861
		C102.787,79.398,103.201,80.033,103.201,82.022z"/>
	<path fill="#7799B2" d="M52.045,82.022c0,6.609-6.436,11.967-9.651,11.967c-2.854,0-9.651-5.357-9.651-11.967
		c0-6.608,6.643-11.967,9.651-11.967c1.401,0,5.051,2.48,5.051,2.48c-5.697,3.002-2.446,8.91,4.188,6.861
		C51.632,79.398,52.045,80.033,52.045,82.022z"/>
	<path fill="#EED2E5" d="M76.075,103.604c0,2.02-4.389,4.469-7.277,4.469c-2.776,0-7.276-2.449-7.276-4.469
		c0-2.021,3.258-2.031,7.276-2.031S76.075,101.584,76.075,103.604z"/>
</g>
<g id="Layer_4">
	<path fill="#CFE3F6" stroke="#B1D0EA" stroke-width="3" stroke-linejoin="round" stroke-miterlimit="10" d="M111.279,164.901
		c-27.38-1.482-43.391-0.495-74.697,2.906c-4.003-4.005-4.475-47.637-1.015-51.096c1.741-1.739,71.447-5.158,73.699-2.906
		C112.089,116.629,114.433,161.748,111.279,164.901z"/>
	<ellipse fill="#FFFFFF" cx="62.913" cy="110.998" rx="5.732" ry="2.928"/>
	<ellipse fill="#FFFFFF" cx="76.453" cy="110.569" rx="7.027" ry="3.357"/>
	
		<path fill="#FFFFFF" stroke="#C2CEDA" stroke-width="4" stroke-linecap="round" stroke-linejoin="round" stroke-miterlimit="10" d="
		M57.18,113.741c0,0,1.295,1.479,5.538,1.479c3.947,0,7.09-2.348,7.09-2.348s3.769,1.975,6.984,1.975c5.337,0,6.69-3.016,6.69-3.016
		"/>
	<text transform="matrix(1 0 0 1 53.2102 149.7292)" fill="#FFFFFF" font-family="'ArialMT'" font-size="36">@</text>
</g>
<g id="Layer_5">
	<g>
		<path fill="#C2CEDA" d="M93.339,101.395c3.313-0.823,6.651-1.45,9.999-2.008c3.346-0.571,6.704-1.025,10.065-1.457
			c3.366-0.396,6.736-0.766,10.12-1.021c3.383-0.267,6.772-0.463,10.188-0.462c-3.313,0.826-6.651,1.454-9.999,2.011
			c-3.345,0.57-6.704,1.024-10.065,1.454c-3.367,0.394-6.735,0.764-10.12,1.017C100.145,101.196,96.754,101.394,93.339,101.395z"/>
	</g>
	<g>
		<path fill="#C2CEDA" d="M95.677,105.711c3.418-0.315,6.827-0.435,10.236-0.483c3.408-0.063,6.814-0.007,10.221,0.07
			c3.404,0.115,6.81,0.256,10.208,0.513c3.401,0.244,6.801,0.559,10.192,1.073c-3.417,0.317-6.828,0.438-10.236,0.486
			c-3.409,0.062-6.814,0.006-10.221-0.074c-3.404-0.116-6.809-0.257-10.208-0.515C102.469,106.536,99.07,106.222,95.677,105.711z"/>
	</g>
	<g>
		<path fill="#C2CEDA" d="M44.556,102.948c-3.556,0.341-7.104,0.484-10.655,0.559c-3.55,0.087-7.097,0.057-10.645,0.004
			c-3.546-0.091-7.091-0.206-10.634-0.438c-3.543-0.22-7.085-0.51-10.623-0.999c3.556-0.343,7.105-0.488,10.654-0.563
			c3.55-0.087,7.098-0.057,10.645,0c3.547,0.093,7.092,0.208,10.635,0.439C37.477,102.172,41.019,102.461,44.556,102.948z"/>
	</g>
	<g>
		<path fill="#C2CEDA" d="M42.556,107.073c-3.232,0.777-6.486,1.357-9.747,1.869c-3.261,0.524-6.533,0.932-9.81,1.318
			c-3.278,0.348-6.563,0.671-9.856,0.879c-3.294,0.22-6.597,0.37-9.92,0.32c3.23-0.778,6.484-1.36,9.747-1.873
			c3.26-0.522,6.532-0.931,9.809-1.313c3.28-0.346,6.563-0.669,9.858-0.876C35.931,107.178,39.232,107.027,42.556,107.073z"/>
	</g>
</g>
</svg>
