<?xml version="1.0" encoding="utf-8"?>
<!-- Generator: Adobe Illustrator 15.0.0, SVG Export Plug-In . SVG Version: 6.00 Build 0)  -->
<!DOCTYPE svg PUBLIC "-//W3C//DTD SVG 1.1//EN" "http://www.w3.org/Graphics/SVG/1.1/DTD/svg11.dtd">
<svg version="1.1" xmlns="http://www.w3.org/2000/svg" xmlns:xlink="http://www.w3.org/1999/xlink" x="0px" y="0px"
	 width="172.143px" height="197.928px" viewBox="0 0 172.143 197.928" enable-background="new 0 0 172.143 197.928"
	 xml:space="preserve">
<g id="Layer_6">
	<path fill="#FFDE17" stroke="#000000" stroke-width="3" stroke-miterlimit="10" d="M147.292,38.39
		c6.282,7.811,3.413-4.148,9.616-16.304c3.345-6.554,1.521-9.225,1.065-10.723c-0.878-2.893-4.282-5.583-9.182-6.02
		c-4.723-0.421-13.544,4.108-12.544,8.483c0.929,4.061,12.578-7.743,10.67,11.767C146.194,32.993,143.982,34.275,147.292,38.39z"/>
	<path d="M141.42,43.401c9.249,5.888,5.307-6.584,7.77-16.31c1.481-5.849,2.381-7.999,2.217-10.724
		c-0.326-5.399-4.613-6.04-8.815-6.013c-3.71,0.024-10.569,4.108-9.789,8.483c0.716,4.007,9.812-7.692,8.326,11.767
		C140.564,38.004,137.534,40.927,141.42,43.401z"/>
</g>
<g id="Layer_8">
	<path stroke="#000000" stroke-miterlimit="10" d="M94.057,197.414c-3.182,0.832-29.235-35.227-26.193-42.776
		c3.042-7.549,36.809-5.798,37.277-1.701C105.611,157.033,101.109,195.57,94.057,197.414z"/>
</g>
<g id="Layer_9">
	<path fill="#FFFFFF" d="M94.837,191.417c-4.581,0.76-8.171-22.264-2.571-22.093c5.599,0.171,8.088,0.885,8.597,2.058
		C101.371,172.554,98.396,190.827,94.837,191.417z"/>
</g>
<g id="Layer_11">
	<path d="M77.516,34.63c-8.554,2.711,18.746,18.242,15.209,30.735c-1.819,6.418,11.115,10.658,19.068,7.712
		c7.543-2.794,12.997-5.137,5.58-15.08c-2.574-3.451-2.486-5.16-8.258-10.246C97.73,37.722,91.092,30.327,77.516,34.63z"/>
</g>
<g id="Layer_1">
	<path stroke="#000000" stroke-miterlimit="10" d="M143.95,133.734c9.18,10.02,5.89,20.279,2.01,25.029
		c-4.67,5.711-12.7,5.43-19.76,3.65c-17.769,10.536-56.213,8.995-68.517-18.797C49.801,125.812,55.314,81.206,71,58.583
		c27.374-39.482,53.904-33.97,73.894-24.235c7.055,3.436,11.005,8.391,12.472,12.269c0.396,1.045,5.732,5.754,8.409,7.667
		c3.5,2.5,3.023,6.461,3.049,7.167c0.017,0.455-2.022,3.612-3.334,3.333c-1.042-0.222-0.885-3.918-4.605-4.082
		c-4.346-0.191-9.936-3.043-12.561,2.457c-1.396,2.927-0.259,6.346,3.14,8.541c1.773,1.145,6.985,3.084,4.985,4.209
		c-6.031,3.393-9.042,2.068-12,1.625c0,0-2.849-1.193-6-0.25c-4.04,1.208-3.919,0.504-4.652,1.861
		c-4.668,8.634-5.306,24.139,3.294,32.389C140.379,114.703,144.28,123.644,143.95,133.734z"/>
</g>
<g id="Layer_2">
	<path fill="#FFFFFF" stroke="#000000" stroke-miterlimit="10" d="M85.039,99.392c-13.678,19.475-17.455,23.494-11.363,43.125
		c3.897,12.557,8.153,15.025,29.046,20.35c7.061,1.799,20.185-2.976,22.965-4.917c0,0,0.874,0.801,3.697,1.231
		c0,0,4.317,0.415,6.846-0.018c16.369-2.797,10.176-20.464,4.772-24.13c0,0,1.221-12.667-8.541-25
		c-3.795-4.794-5.954-7.358-5.229-19.833c0.28-4.822,3.138-12.5,3.138-12.5s-10.007,0.934-14.033-8.417
		c-3.66-8.5-20.672-7.23-22.722,0.622C88.708,88.7,93.642,87.143,85.039,99.392z"/>
</g>
<g id="Layer_10">
	<path d="M0.016,74.592c-1.011,6.256,47.28-6.851,53.184,0.62c5.71,7.224,24.245,2.865,30.074-5.211
		c4.602-6.375,6.442-16.091-11.389-18.875c-6.188-0.966-10.073-2.637-20.93-2.435C33.729,49.013,1.128,67.704,0.016,74.592z"/>
	<path fill="#FFFFFF" d="M51.355,55.464C35.399,55.154,9.937,68.14,10.787,70.931c1.62,5.32,35.879-7.055,45.074,1.179
		c7.55,6.761,9.1-2.863,13.696-4.131C86.012,63.442,80.681,56.033,51.355,55.464z"/>
</g>
<g id="Layer_4">
	<path fill="#F15A29" d="M145.241,67.45c3.5,5.667,9.677,5.941,9.75,7.25s-3.831,2.248-5.5,2.25
		c-4.667,0.005-7.834-2.583-9.917-7.917c-1.806-4.622-1.017-12.212,1.564-9.417"/>
	<path fill="#F15A29" d="M165.907,63.777c-1.11-0.59-0.146-2.19-2.167-3.16c-1.66-0.34-4.771-1.04-7.618-1.602
		c-1.809-0.357-9.795-2.788-12.465-5.528c-1.32-1.35,11.311-1.647,17.5,1.963c-6.165-4.25-4.369-5.948-3.952-7.162
		c0,0,1.915,2.296,5.035,4.456c3.13,2.16,4.42,2.36,5.5,6.27C168.82,62.935,165.907,63.777,165.907,63.777z"/>
</g>
<g id="Layer_3">
	<circle fill="none" stroke="#F15A29" stroke-width="3" stroke-miterlimit="10" cx="130.741" cy="48.289" r="4.456"/>
</g>
<g id="Layer_5">
	<path stroke="#000000" stroke-width="3" stroke-miterlimit="10" d="M98.786,7.238c-9.429-2.207-21.663,3.445-23.126,0.757
		c-0.752-1.381,16.254-10.708,32.468-4.228c9.854,3.937,16.538,9.873,23.092,18.778c9.094,12.35,15.985,15.429,14.178,17.635
		c-1.644,2.002-8.106-1.792-19.563-15.434C116.551,13.696,106.326,9.002,98.786,7.238z"/>
	<path fill="#FFDE17" stroke="#000000" stroke-width="3" stroke-miterlimit="10" d="M84.011,22.542
		c-11.126,1.99-24.765,11.408-26.214,9.335C56.273,29.7,70.152,6.929,93.335,8.459c11.946,0.789,21.432,4.298,31.467,12.259
		c16.622,13.188,19.953,16.486,17.761,20.565c-1.225,2.281-6.396-2.882-23.963-12.936C104.341,20.187,92.916,20.949,84.011,22.542z"
		/>
</g>
<g id="Layer_7">
	<path fill="#F5A7C9" stroke="#000000" stroke-width="2" stroke-miterlimit="10" d="M99.941,166.252
		c9.53,2.167,15.983-14.208,16.819-18.154c3.203-15.087,3.234-13.379-0.796-15.019c-3.224-1.313-4.689,1.099-5.516,2.079
		c0,0-0.168-0.069-1.789-0.298c0,0,1.733-8.291-4.151-10.137c-6.135-1.924-6.811,8.878-6.811,8.878
		c-1.357,0.023-2.208,0.176-2.208,0.176c-0.345-1.281-1.107-3.144-4.362-2.849c-4.064,0.37-5.796-3.1-3.994,14.599
		C88.407,158.034,91.273,164.282,99.941,166.252z"/>
	<path d="M89.588,122.802c1.85-0.15,7.944,10.064,0.338,10.296C82.524,133.324,87.848,122.946,89.588,122.802z"/>
	<path d="M104.853,117.425c1.812,0.242,6.218,11.488-1.566,10.521C95.502,126.98,103.022,117.185,104.853,117.425z"/>
	<path d="M118.241,125.854c2.109,0.303,4.316,10.931-2.623,8.747C109.907,132.804,115.719,125.492,118.241,125.854z"/>
	<path fill="#F5A7C9" stroke="#000000" stroke-width="2" stroke-miterlimit="10" d="M143.569,161.121
		c5.866,3.984,12.201-0.754,18.998-8.585c8.422-9.703,7.544-8.678,5.348-10.878c-2.148-2.152-3.776-0.345-4.764,0.249
		c0,0-0.567-0.434-1.307-0.696c0,0,4.69-6.348,1.277-8.432c-4.871-2.975-8.809,4.229-8.809,4.229
		c-0.637-0.438-0.956-0.486-0.956-0.486c0.188-1.273,0.577-2.166-1.908-3.07c-2.922-1.063-2.624-3.268-8.76,9.653
		C141.324,145.978,138.231,157.495,143.569,161.121z"/>
	<path d="M153.484,127.07c1.455,0.229,2.781,9.99-3.048,7.506C144.594,132.085,152.01,126.838,153.484,127.07z"/>
	<path d="M165.537,127.997c1.267,0.663,0.704,10.183-4.137,6.838C156.325,131.328,164.154,127.276,165.537,127.997z"/>
	<path d="M171.667,136.514c1.261,0.974,0.114,10.103-4.616,6.047C162.426,138.595,170.534,135.636,171.667,136.514z"/>
</g>
</svg>
