<?xml version="1.0" encoding="utf-8"?>
<!-- Generator: Adobe Illustrator 15.0.0, SVG Export Plug-In . SVG Version: 6.00 Build 0)  -->
<!DOCTYPE svg PUBLIC "-//W3C//DTD SVG 1.1//EN" "http://www.w3.org/Graphics/SVG/1.1/DTD/svg11.dtd">
<svg version="1.1" xmlns="http://www.w3.org/2000/svg" xmlns:xlink="http://www.w3.org/1999/xlink" x="0px" y="0px"
	 width="1451.371px" height="355.462px" viewBox="0 0 1451.371 355.462" enable-background="new 0 0 1451.371 355.462"
	 xml:space="preserve">
<g id="Layer_4">
</g>
<g id="Layer_8">
	<g>
		<path fill="#FFFFFF" d="M120.893,319.461c-34.451,0-62.724-8.038-84.035-23.89c-19.166-14.257-28.021-31.28-32.075-43.049
			c-9.479-27.519-4.157-56.71,13.04-76.337c-2.926-4.11-5.599-8.556-7.955-13.375c-12.536-25.649-13.131-55.289-1.767-88.096
			c7.976-23.027,23.528-41.497,44.976-53.413C74.447,9.429,96.009,6.937,110.334,6.937c25.255,0,50.51,7.985,69.288,21.909
			c18.224,13.514,30.801,26.917,38.449,40.977c11.22,20.624,12.046,42.875,2.598,62.309c17.741,20.831,32.78,55.135,16.19,106.647
			c-6.729,20.896-22.344,40.886-43.968,56.287c-22.064,15.715-47.575,24.38-71.831,24.397H120.893z"/>
	</g>
	<g>
		<path fill="#9AC5EA" d="M120.893,287.461c-63.388,0-81.156-31.721-85.854-45.359c-6.431-18.67-1.688-38.926,11.532-49.256
			c7.042-5.504,15.018-8.413,23.063-8.413c12.36,0,21.608,6.559,28.36,11.347c4.238,3.006,8.238,5.842,11.164,5.909
			c1.073,0.024,2.114,0.036,3.125,0.036c4.388,0,7.621-0.234,9.97-0.54c-4.672-1.923-10.722-3.983-15.345-5.558
			c-22.977-7.822-54.442-18.533-68.292-46.869c-8.782-17.967-8.873-38.761-0.279-63.57c11.812-34.102,44.936-46.252,71.996-46.252
			c18.538,0,36.846,5.691,50.229,15.614c14.405,10.682,24.021,20.679,29.398,30.563c7.03,12.922,6.856,26.151-0.489,37.25
			c-3.738,5.649-8.209,10.286-13.164,13.762c5.925,3.632,11.552,7.878,16.526,12.956c19.623,20.03,24.187,46.908,13.565,79.887
			c-4.565,14.176-16.255,28.767-32.072,40.031c-16.699,11.894-35.625,18.45-53.291,18.463H120.893z"/>
	</g>
	<g>
		<path fill="#FFFFFF" d="M760.64,297.417l0.001,32c-13.374,0-33.322-4.016-52.404-23.15c-4.958-4.971-8.782-10.296-11.888-15.721
			c-12.875,7.525-27.972,11.806-42.512,11.806c-29.62,0-54.933-16.993-66.06-44.347c-9.411-23.13-4.983-43.319-1.75-58.061
			c2.601-11.866,5.29-24.134,4.47-46.271c-0.697-18.823-2.233-34.792-3.467-47.622c-1.457-15.131-2.51-26.065-1.93-36.774
			c1.536-28.322,15.477-43.573,26.899-51.381c12.908-8.822,28.82-13.68,44.807-13.68c17.202,0,33.108,5.529,45.999,15.989
			c0.428,0.347,0.862,0.707,1.306,1.083c0.591-0.461,1.194-0.917,1.813-1.369c11.904-8.71,25.652-13.315,39.755-13.315
			c12,0,42.057,3.846,61.932,39.472c20.189,36.188,1.095,82.857-16.315,105.002c5.399,8.031,10.188,16.024,14.323,23.916
			c1.098,2.095,10.914,21.109,17.57,43.5c10.93,36.769,8.171,65.213-8.198,84.542c-14.408,17.013-33.708,26.383-54.345,26.383
			L760.64,297.417z"/>
	</g>
	<g>
		<path fill="#9AC5EA" d="M760.645,297.417c-7.317,0.001-18.418-2.384-29.75-13.747c-7.345-7.363-10.862-16.978-14.936-28.109
			c-3.217-8.793-7.104-19.416-13.842-31.053c-4.17,20.427-8.704,28.098-14.593,33.201c-9.001,7.799-21.908,12.643-33.688,12.643
			c-16.588,0-30.202-9.123-36.418-24.404c-5.666-13.926-2.979-26.178-0.135-39.148c2.746-12.527,6.162-28.107,5.19-54.312
			c-0.731-19.76-2.317-36.25-3.592-49.5c-1.324-13.758-2.278-23.68-1.829-31.981c0.248-4.573,1.001-18.487,13.004-26.691
			c7.53-5.146,17.279-8.099,26.749-8.099c9.777,0,18.711,3.056,25.836,8.837c3.496,2.836,12.547,10.181,18.42,37.476
			c3.544-4.13,5.265-8.25,7.398-13.356c3.072-7.355,6.896-16.508,16.355-23.427c6.387-4.673,13.601-7.143,20.862-7.143
			c7.888,0,22.792,2.996,33.986,23.062c11.538,20.681-0.846,54.231-14.222,70.499c-4.565,5.552-10.145,11.726-15.197,17.14
			c8.385,10.43,18.729,24.703,27.027,40.541c1.431,2.73,34.78,67.143,13.297,92.51C782.345,292.067,771.717,297.417,760.645,297.417
			L760.645,297.417L760.645,297.417z"/>
	</g>
	<g>
		<path fill="#FFFFFF" d="M262.367,307.608c-1.495,0-2.998-0.039-4.596-0.12c-24.954-1.248-55.243-17.218-66.626-50.083
			c-4.472-12.914-4.157-23.462-2.829-67.856c0.24-8.011,0.666-22.26,0.898-36.19c-1.304-0.354-2.611-0.739-3.918-1.16
			c-14.863-4.782-27.335-13.486-36.07-25.169c-9.001-12.04-13.644-26.651-13.428-42.256c0.454-32.678,20.297-58.742,51.787-68.019
			c15.73-4.635,32.58-4.635,48.875-4.635h1.877c7.5,0,14.281-0.023,21.318-0.304c3.051-0.122,6.107-0.254,9.146-0.385l0.676-0.029
			c12.098-0.522,23.589-1.019,34.844-1.019c9.325,0,24.932,0,40.479,3.79c32.126,7.831,52.968,30.088,55.751,59.537
			c1.968,20.851-4.256,40.502-17.525,55.338c-13.946,15.594-31.875,22.175-48.515,25.027c0.1,5.903,0.214,11.379,0.301,15.527
			c1.276,60.989,1.753,83.802-11.207,103.231C304.435,301.575,279.722,307.608,262.367,307.608z"/>
	</g>
	<g>
		<path fill="#9AC5EA" d="M262.367,275.608c-0.942,0-1.918-0.025-2.983-0.079c-14.231-0.712-31.5-9.829-38-28.597
			c-2.36-6.814-2.327-14.773-1.081-56.426c0.429-14.347,1.406-46.988,0.958-65.167c-8.065-0.243-17.466-0.804-26.162-3.602
			c-17.336-5.578-27.542-19.23-27.302-36.52c0.259-18.679,10.768-32.445,28.833-37.768c11.303-3.331,25.161-3.331,39.832-3.331
			h1.877c7.851,0,14.97-0.025,22.595-0.33c3.247-0.13,6.497-0.271,9.727-0.41l0.131-0.005c11.823-0.511,22.989-0.992,33.531-0.992
			c8.397,0,21.088,0,32.899,2.879c25.385,6.188,30.613,22.366,31.473,31.459c1.137,12.043-2.155,22.761-9.52,30.995
			c-14.248,15.931-38.43,16.362-56.086,16.677c-0.231,0.004-0.48,0.009-0.744,0.014c-0.205,13.399,0.229,34.141,0.475,45.885
			c1.25,59.755,0.862,74.746-5.835,84.787C291.105,263.891,281.121,275.608,262.367,275.608z"/>
	</g>
	<g>
		<path fill="#FFFFFF" d="M558.023,300.889c-13.087,0-47.024-2.426-79.448-24.89c-16.298-11.292-29.542-25.876-39.363-43.349
			c-12.4-22.06-18.931-48.154-19.411-77.555c-0.704-43.246,12.414-79.182,38.99-106.811C496.788,8.783,543.32,5.713,556.676,5.713
			c0.986,0,1.945,0.014,2.888,0.042c26.481,0.743,47.541,5.424,64.348,14.309c20.354,10.76,33.833,27.634,38.981,48.797
			c5.855,24.067,0.9,48.747-13.595,67.709c-4.331,5.665-9.342,10.589-14.877,14.698c13.7,8.583,24.411,21.822,30.102,38.258
			c10.281,29.685,1.488,62.63-21.881,81.977C619.08,291.003,590.611,300.889,558.023,300.889z"/>
	</g>
	<g>
		<path fill="#9AC5EA" d="M558.023,268.889c-7.864,0-35.521-1.385-61.224-19.193c-20.049-13.891-44.131-41.67-45.003-95.123
			c-0.562-34.49,9.551-62.787,30.057-84.105c23.23-24.15,53.884-32.755,74.823-32.755c0.668,0,1.317,0.009,1.955,0.028
			c42.594,1.195,67.215,14.21,73.168,38.683c3.56,14.629,0.671,29.469-7.924,40.712c-8.053,10.531-20.22,16.573-33.382,16.575
			c-9.211,0-18.267-2.827-26.933-8.405c-0.939-0.335-3.453-0.982-6.884-0.982c-5.681,0-10.089,1.58-13.101,4.694
			c-4.351,4.498-6.581,13.114-6.451,24.917c0.301,27.36,10.338,27.36,17.667,27.36c9.571,0,18.944-3.769,20.726-4.524
			c6.93-2.938,13.793-4.429,20.397-4.429c17.492,0,32.553,10.854,38.368,27.653c5.938,17.146,1.097,35.978-12.048,46.859
			C604.569,261.475,582.965,268.889,558.023,268.889z"/>
	</g>
	<g>
		<path fill="#FFFFFF" d="M449.994,301.764c-12.794,0-25.438-3.016-36.564-8.721c-10.351-5.305-17.521-12.504-22.7-19.733
			c-6.097,7.379-14.083,14.584-25.002,19.669c-9.977,4.646-20.463,7.001-31.169,7.001c-33.797,0-59.3-23.352-69.583-46.495
			c-9.198-20.706-4.089-37.892,5.733-66.486c5.423-15.79,13.132-36.375,21.151-56.477c8.717-21.846,17.395-42.115,24.435-57.079
			c14.518-30.856,23.379-42.831,37.927-51.252c13.597-7.87,26.087-11.535,39.308-11.535c13.679,0,23.791,4.082,29.833,6.521
			c0.925,0.374,1.77,0.72,2.688,1.058c23.036,8.46,32.109,26.433,44.312,55.028c6.47,15.156,14.405,35.363,22.347,56.897
			c7.94,21.531,15.127,42.333,20.237,58.577c9.819,31.214,11.71,43.617,8.796,57.699c-6.757,32.581-36.258,55.327-71.745,55.327
			H449.994z"/>
	</g>
	<g>
		<path fill="#9AC5EA" d="M449.994,269.764c-7.739,0-15.334-1.796-21.964-5.195c-10.566-5.416-14.911-15.301-18.743-24.022
			c-5.85-13.308-8.457-17.911-19.932-17.911c-2.855,0-5.19,1.037-13.513,15.412c-5.544,9.576-11.828,20.431-23.624,25.924
			c-5.713,2.66-11.654,4.01-17.66,4.01c-19.324,0-34.458-14.25-40.339-27.488c-3.776-8.5-2.64-15.75,6.754-43.098
			c5.264-15.328,12.776-35.38,20.609-55.016c8.48-21.252,16.885-40.895,23.668-55.312c13.602-28.909,19.155-33.796,25.003-37.181
			c8.64-5,15.817-7.23,23.277-7.23c7.466,0,13.228,2.326,17.858,4.195c1.223,0.495,2.373,0.959,3.623,1.418
			c9.648,3.543,14.252,10.212,25.92,37.553c6.271,14.691,13.996,34.37,21.755,55.409c7.768,21.063,14.776,41.345,19.735,57.108
			c9.314,29.607,9.209,35.698,7.985,41.61c-3.698,17.834-19.937,29.813-40.409,29.813H449.994z"/>
	</g>
	<g>
		<path fill="#FFFFFF" d="M896.952,298.622c-11.211,0-45.329,0-77.609-19.363c-27.687-16.606-61.193-51.396-63.59-122.826
			c-1.443-43.059,12.629-81.168,40.695-110.208C828.045,13.53,868.166,1.912,892.92,1.897c52.961,0,98.062,30.99,107.258,73.687
			c4.695,21.791-0.957,45.271-15.121,62.809c-2.585,3.202-5.402,6.146-8.418,8.816c5.188,4.78,9.756,10.402,13.532,16.763
			c14.646,24.675,15.284,56.798,1.625,81.84C974.299,277.893,937.071,298.622,896.952,298.622z"/>
	</g>
	<g>
		<path fill="#DEBBB9" d="M896.952,266.622c-9.974,0-36.468,0-61.148-14.805c-30.359-18.21-46.532-50.663-48.068-96.458
			c-1.146-34.188,9.822-64.236,31.723-86.896c23.061-23.862,53.522-34.554,73.482-34.566c37.359,0,70.01,20.818,75.956,48.425
			c2.679,12.432-0.587,25.877-8.733,35.965c-7.607,9.421-18.775,14.825-30.64,14.827c-10.545,0-20.835-3.994-30.612-11.874
			c-0.953-0.261-2.726-0.604-5.005-0.604c-3.098,0-8.913,0.625-13.054,4.813c-5.784,5.849-6.889,16.782-6.798,24.925
			c0.142,12.534,2.253,27.476,11.513,27.476c5.129,0,10.786-2.626,12.512-4.097c10.152-8.647,20.744-13.032,31.482-13.032
			c13.441,0,25.813,7.322,33.094,19.587c8.859,14.924,9.28,35.09,1.049,50.182C951.732,252.439,925.53,266.622,896.952,266.622z"/>
	</g>
	<g>
		<path fill="#FFFFFF" d="M1095.573,355.462c-14.624,0-36.061-4.929-55.139-28.412c-16.094-19.805-20.972-45.391-13.379-70.194
			c14.914-48.717,72.724-81.92,117.697-95.552c16.063-4.87,33.949-7.339,53.159-7.339c6.017,0,12.02,0.246,17.958,0.69
			c-7.025-20.535-9.236-47.364,0.277-81.473C1230.248,22.628,1278.706,0,1320.475,0c24.934,0,48.793,7.511,67.185,21.148
			c6.61,4.902,18.913,14.026,28.38,28.574c12.919,19.855,15.919,42.632,8.677,65.871c-1.418,4.548-3.264,8.833-5.491,12.827
			c0.097,0.092,0.194,0.184,0.291,0.275c17.609,16.746,37.197,47.324,30.515,97.903c-4.265,32.265-19.346,59.51-43.612,78.792
			c-20.716,16.459-46.733,25.821-73.261,26.361c-0.814,0.015-1.535,0.022-2.247,0.022c-24.415,0-48.883-7.826-74.787-16.112
			c-19.956-6.383-42.568-13.615-56.953-13.615c-1.416,0-2.448,0.079-3.065,0.145c-19.748,2.121-29.811,11.986-41.462,23.41
			c-12.13,11.891-30.458,29.856-59.066,29.86H1095.573z"/>
	</g>
	<g>
		<path fill="#DEBBB9" d="M1095.571,323.462c-11.32,0-21.231-5.427-30.301-16.59c-9.396-11.563-12.102-26-7.617-40.651
			c10.453-34.141,57.288-62.443,96.382-74.293c13.054-3.957,27.816-5.963,43.877-5.963c46.874,0,93.704,17.039,106.94,22.261
			c5.134,2.025,11.122,3.188,16.43,3.188c5.194,0,7.813-0.806,9.162-1.778c-4.747-2.719-13.5-6.331-17.298-7.898
			c-17.099-7.055-38.377-15.836-53.513-33.689c-18.336-21.631-22.596-50.655-12.663-86.269c9.592-34.387,43.829-49.78,73.505-49.78
			c18.117,0,35.208,5.275,48.124,14.853c10.7,7.935,35.759,26.517,25.566,59.219c-4.612,14.789-17.611,23.977-33.925,23.979
			c-0.368,0-0.735-0.005-1.105-0.014c12.91,4.75,27.003,11.078,38.329,21.849c17.779,16.907,24.791,40.634,20.842,70.521
			c-6.884,52.086-49.302,76.609-85.8,77.353c-0.543,0.01-1.072,0.016-1.596,0.016c-19.419,0-41.578-7.087-65.038-14.591
			c-23.266-7.441-47.323-15.137-66.702-15.137c-2.274,0-4.453,0.11-6.476,0.327c-30.803,3.308-47.244,19.426-60.454,32.377
			c-10.389,10.184-21.126,20.709-36.668,20.711H1095.571z"/>
	</g>
	<g>
		<path fill="#FFFFFF" d="M1095.196,292.911c-12.787,0-25.549-3.191-36.906-9.229c-8.4-4.464-14.692-10.265-19.465-16.362
			c-5.396,6.514-12.51,12.727-22.002,17.31c-10.141,4.896-20.832,7.379-31.773,7.379c-34.109,0-59.654-23.975-69.838-47.735
			c-8.691-20.281-3.582-38.171,5.475-65.681c5.238-15.915,12.689-36.609,20.441-56.778c8.431-21.931,16.855-42.313,23.724-57.393
			c12.222-26.832,21.333-42.199,37.212-51.726c13.765-8.257,26.461-12.103,39.957-12.103c14,0,24.268,4.298,30.402,6.866
			c0.91,0.381,1.748,0.737,2.65,1.082c23.266,8.862,32.436,28.143,42.852,54.415c5.771,14.557,12.681,33.862,19.455,54.358
			c17.959,54.32,27.031,90.955,26.966,108.886c-0.138,37.405-30.511,66.708-69.146,66.712H1095.196z"/>
	</g>
	<g>
		<path fill="#DEBBB9" d="M1095.194,260.911c-7.566,0-15.135-1.896-21.884-5.484c-11.629-6.179-15.454-18.216-18.247-27.006
			c-4.449-13.996-5.738-15.438-13.795-15.438c-0.287,0-0.574,0.004-0.87,0.012c-10.134,0.26-11.362,2.611-16.185,15.057
			c-3.516,9.075-8.33,21.498-21.303,27.762c-5.768,2.784-11.776,4.196-17.861,4.196c-19.43,0-34.574-14.691-40.426-28.342
			c-3.383-7.895-2.945-14.504,6.457-43.068c5.084-15.44,12.343-35.598,19.917-55.303c8.205-21.347,16.364-41.096,22.976-55.609
			c12.09-26.543,17.754-33.471,24.553-37.551c8.695-5.216,15.941-7.543,23.494-7.543c7.574,0,13.383,2.432,18.049,4.386
			c1.234,0.517,2.379,0.995,3.609,1.464c9.566,3.644,14.375,10.769,24.498,36.305c5.547,13.992,12.231,32.675,18.82,52.608
			c7.646,23.126,25.421,79.041,25.349,98.726c-0.073,19.854-16.044,34.827-37.149,34.829H1095.194z"/>
	</g>
	<g>
		<path fill="#FFFFFF" d="M1176.201,290.859c-1.502,0-3.019-0.04-4.64-0.122c-24.979-1.243-55.29-17.166-66.633-49.932
			c-4.532-13.089-4.038-25.095-2.4-64.878c0.27-6.545,0.734-17.854,1.07-29.337c-0.707-0.229-1.415-0.467-2.123-0.717
			c-29.319-10.353-47.271-35.826-46.847-66.48c0.47-33.773,20.229-60.118,52.858-70.475c16.774-5.325,34.978-5.964,56.055-6.704
			l0.235-0.008c3.127-0.109,6.352-0.223,9.687-0.356l6.216-0.254c11.462-0.472,22.277-0.917,32.501-0.917
			c9.438,0,25.234,0,40.769,4.169c30.717,8.245,50.692,30.506,53.437,59.548c1.924,20.396-3.831,39.811-16.205,54.674
			c-12.076,14.504-27.533,21.774-41.842,25.633c0.1,5.382,0.214,10.383,0.301,14.176c1.26,55.113,1.781,77.917-11.086,97.216
			C1218.399,284.828,1193.617,290.859,1176.201,290.859z"/>
	</g>
	<g>
		<path fill="#DEBBB9" d="M1176.201,258.859c-0.952,0-1.939-0.026-3.018-0.081c-14.262-0.71-31.556-9.779-38.016-28.44
			c-2.329-6.727-2.217-15.439-0.667-53.094c0.521-12.676,1.695-41.225,1.47-57.773c-7.39-0.276-15.854-0.95-23.84-3.771
			c-16.202-5.721-25.736-19.128-25.505-35.864c0.276-19.899,11.123-34.253,30.542-40.417c12.597-3.999,27.998-4.54,47.497-5.224
			l0.247-0.009c3.164-0.111,6.442-0.226,9.832-0.362l6.241-0.255c11.141-0.458,21.623-0.89,31.195-0.89
			c8.368,0,21.015,0,32.474,3.076c24.001,6.442,29.018,22.596,29.873,31.652c1.134,12.019-1.958,22.804-8.939,31.189
			c-12.941,15.543-33.957,17.493-49.413,18.859c-0.213,12.183,0.227,31.378,0.474,42.177c1.236,54.084,0.836,68.879-5.72,78.712
			C1205.057,247.151,1195.069,258.859,1176.201,258.859z"/>
	</g>
</g>
<g id="Layer_2">
	<path opacity="0.25" d="M124.489,278.787c-53.09,0-67.146-24.174-70.726-34.569c-4.175-12.122-1.544-25.343,6.255-31.438
		c4.263-3.332,8.708-5.021,13.212-5.021c7.262,0,13.283,4.27,19.105,8.398c6.014,4.265,12.232,8.675,20.055,8.853
		c1.197,0.027,2.36,0.041,3.489,0.041c12.384,0,20.592-1.64,25.092-5.012c2.596-1.946,5.25-5.17,5.25-14.324
		c0-7.503-14.846-12.557-30.563-17.908c-21.45-7.302-48.144-16.391-59.071-38.748c-6.816-13.945-6.664-30.728,0.464-51.308
		c9.063-26.166,35.324-35.489,56.877-35.489c15.18,0,30.014,4.544,40.699,12.466c24.76,18.36,33.203,33.88,25.096,46.131
		c-5.96,9.007-13.918,13.968-22.408,13.968c-6.933,0-13.613-3.326-18.811-9.366c-5.884-6.839-16.093-11.996-23.747-11.996
		c-5.448,0-8.065,2.341-8.751,7.827c-1.057,8.459,10.908,13.395,30.74,20.519c16.624,5.972,35.466,12.74,48.252,25.792
		c15.348,15.667,18.542,36.531,9.765,63.785c-7.053,21.901-39.23,47.377-70.144,47.399
		C124.624,278.787,124.493,278.787,124.489,278.787z"/>
	<path opacity="0.25" d="M260.963,263.934c-0.72,0-1.453-0.022-2.206-0.06c-8.615-0.431-19.708-6.152-23.704-17.696
		c-1.412-4.078-1.181-16.364-0.162-50.434c0.811-27.107,2.143-71.646-0.387-81.393c-2.367-0.452-7.176-0.572-10.849-0.664
		c-8.144-0.204-17.374-0.436-25.181-2.949c-13.47-4.336-16.182-13.599-16.084-20.606c0.158-11.41,5.96-18.882,17.245-22.209
		c9.142-2.695,21.907-2.695,35.422-2.695h1.877c8.026,0,15.313-0.026,23.216-0.342c3.309-0.132,6.619-0.275,9.908-0.417
		c11.652-0.503,22.658-0.978,32.859-0.978c15.128,0,46.607,0,48.446,19.494c0.695,7.371-1.113,13.525-5.375,18.292
		c-9.604,10.745-28.999,11.091-44.583,11.37c-5.438,0.097-12.704,0.227-15.413,1.055c-1.712,7.235-1.058,38.531-0.574,61.666
		c1.017,48.657,1.027,69.08-3.037,75.175C276.042,260.055,269.836,263.934,260.963,263.934z"/>
	<path opacity="0.25" d="M468.527,211.594c-4.885-16.098-11.805-36.854-19.484-58.442c-7.67-21.563-15.291-41.688-21.459-56.67
		c-11.475-27.874-14.024-28.845-16.725-29.873c-1.482-0.565-2.809-1.12-4.091-1.657c-4.03-1.688-7.511-3.145-11.87-3.145
		c-4.549,0-9.113,1.574-15.262,5.263c-2.093,1.256-5.989,3.594-18.541,31.251c-6.656,14.667-14.925,34.707-23.284,56.426
		c-7.733,20.094-15.146,40.605-20.338,56.276c-9.251,27.921-8.286,30.172-7.265,32.556c3.212,7.494,12.711,18.645,25.718,18.645
		c3.656,0,7.325-0.876,10.905-2.605c7.228-3.489,11.748-11.583,16.533-20.151c8.181-14.649,14.505-24.252,27.359-24.252
		c22.503,0,28.919,15.131,34.579,28.481c3.16,7.454,5.89,13.891,11.396,16.817c4.382,2.329,9.454,3.56,14.667,3.56
		c12.684,0,22.627-7.106,24.742-17.681C476.52,244.323,477.291,240.473,468.527,211.594z M382.223,172.715l11.734-35l13.766,35
		C407.723,172.715,397.723,166.215,382.223,172.715z"/>
	<path opacity="0.25" d="M563.62,256.215c-6.723,0-30.364-1.156-52.316-16.033c-16.879-11.438-37.157-34.579-37.912-79.867
		c-0.486-29.197,8.061-52.943,25.403-70.577c19.793-20.125,46.565-27.266,63.479-27.266c0.517,0,1.019,0.007,1.512,0.021
		c34.559,0.949,54.104,9.564,58.095,25.607c2.338,9.398,0.529,18.816-4.96,25.839c-4.999,6.395-12.592,10.063-20.832,10.064
		c-0.001,0-0.003,0-0.004,0c-6.328,0-12.704-2.046-18.949-6.082c-1.929-1.246-7.478-3.1-14.86-3.1
		c-6.929,0-16.789,1.619-24.415,9.331c-7.572,7.657-11.318,19.768-11.136,35.995c0.323,28.77,11.336,42.755,33.666,42.755
		c12.255,0,23.608-4.313,26.797-5.635c4.994-2.071,9.814-3.122,14.326-3.122c10.812,0,19.741,6.254,23.305,16.32
		c3.637,10.27,0.829,21.42-6.984,27.746C603.076,250.158,584.836,256.215,563.62,256.215z"/>
	<path opacity="0.25" d="M763.242,289.745c-6.215,0-12.399-2.969-18.382-8.827c-4.874-4.771-7.694-12.299-11.266-21.83
		c-5.97-15.931-14.688-39.197-39.154-63.601c-0.628,5.48-1.481,12.279-2.533,19.211c-4.558,30.013-8.778,37.111-12.307,40.097
		c-6.116,5.175-15.21,8.519-23.166,8.519c-9.977,0-17.843-5.148-21.582-14.125c-3.818-9.163-1.938-17.533,0.663-29.118
		c2.781-12.387,6.592-29.352,5.546-56.904c-0.749-19.76-2.361-36.12-3.656-49.265c-2.47-25.069-3.709-37.652,4.321-43.012
		c4.854-3.24,11.463-5.174,17.678-5.174c6.044,0,11.478,1.773,15.712,5.128c11.315,8.964,15.306,38.055,16.662,53.957
		c5.838-3.358,14.301-9.079,22.617-17.742c6.183-6.442,8.856-12.689,11.441-18.731c2.67-6.24,5.192-12.134,11.066-16.33
		c3.67-2.622,7.496-3.951,11.373-3.951c7.649,0,14.563,5.022,19.991,14.523c7.001,12.254-1.035,37.75-12.62,51.508
		c-7.62,9.048-18.374,20.051-24.226,25.92c7.342,8.063,22.974,26.352,34.256,47.378c12.613,23.507,24.93,62.018,15.245,73.184
		C775.713,286.569,769.599,289.745,763.242,289.745z"/>
	<path opacity="0.25" d="M897.549,250.304c-8.763,0-32.038,0-52.92-12.525c-25.402-15.237-38.965-43.255-40.307-83.273
		c-0.998-29.754,8.42-55.771,27.236-75.24c19.699-20.383,45.941-29.676,61.986-29.685c29.514,0,55.982,15.722,60.307,35.794
		c1.645,7.636-0.479,16.274-5.541,22.543c-4.623,5.726-11.084,8.879-18.193,8.88c-7.158,0-14.453-3.112-21.682-9.252
		c-1.578-1.34-6.943-3.227-13.934-3.227c-5.593,0-16.203,1.243-24.432,9.563c-7.76,7.848-11.602,20.079-11.419,36.354
		c0.222,19.751,5.175,43.296,27.511,43.296c8.926,0,18.27-3.982,22.889-7.917c7.176-6.112,14.276-9.212,21.106-9.212
		c7.854,0,14.901,4.285,19.336,11.755c5.982,10.078,6.296,24.204,0.761,34.353C941.045,239.395,920.357,250.304,897.549,250.304z"/>
	<path opacity="0.25" d="M1095.167,309.145c-6.279,0-11.962-3.393-17.881-10.679c-6.016-7.402-7.652-16.352-4.736-25.88
		c8.259-26.977,50.33-52.936,85.723-63.663c11.55-3.501,24.751-5.275,39.236-5.275c44.047,0,88.494,16.184,101.068,21.145
		c7.035,2.775,14.955,4.304,22.3,4.305c0,0,0.002,0,0.003,0c10.712,0,23.996-3.074,26.462-17.72
		c1.566-9.303-7.479-14.075-28.496-22.747c-16.306-6.729-34.786-14.354-47.41-29.246c-14.902-17.58-17.995-41.009-9.456-71.623
		c7.337-26.305,34.464-38.079,58.093-38.079c14.708,0,28.415,4.157,38.594,11.705c13.477,9.993,26.107,21.438,19.821,41.605
		c-2.524,8.096-9.322,12.739-18.651,12.74c-7.294,0-15.614-2.863-22.256-7.661c-6.468-4.672-24.138-12.722-27.661,0.571
		c-5.389,20.328,7.926,25.891,33.203,34.55c14.515,4.973,30.966,10.608,42.914,21.97c14.057,13.367,19.292,31.956,16.005,56.831
		c-5.646,42.728-40.381,62.843-70.264,63.451c-0.418,0.008-0.846,0.013-1.27,0.013c-0.002,0-0.004,0-0.007,0
		c-16.916,0-37.92-6.718-60.157-13.83c-24.437-7.816-49.705-15.897-71.576-15.897c-2.841,0-5.594,0.141-8.185,0.419
		c-36.326,3.9-55.758,22.95-69.946,36.86C1111.44,302.024,1104.178,309.144,1095.167,309.145z"/>
	<path opacity="0.25" d="M1089.402,135.06c-6.495-19.648-13.065-38.021-18.503-51.733c-10-25.223-12.705-26.254-15.321-27.25
		c-1.482-0.565-2.809-1.12-4.091-1.657c-4.031-1.688-7.512-3.145-11.87-3.145c-4.549,0-9.113,1.574-15.262,5.263
		c-3.108,1.865-7.468,6.846-18.226,30.462c-6.482,14.233-14.509,33.666-22.601,54.718c-7.483,19.471-14.647,39.359-19.653,54.565
		c-8.933,27.134-7.924,29.487-6.949,31.763c3.213,7.495,12.713,18.645,25.719,18.645c3.656,0,7.325-0.876,10.905-2.604
		c7.292-3.521,10.366-11.458,13.341-19.134c4.928-12.718,9.581-24.729,30.705-25.271c0.431-0.011,0.85-0.017,1.268-0.017
		c20.592,0,24.889,13.519,29.044,26.593c2.388,7.512,4.642,14.606,10.509,17.724c4.445,2.363,9.416,3.612,14.375,3.612
		c12.412-0.001,21.109-7.768,21.15-18.888C1113.994,214.55,1101.299,171.049,1089.402,135.06z M1027.942,157.183l11.734-35
		l13.766,35C1053.442,157.183,1043.442,150.683,1027.942,157.183z"/>
	<path opacity="0.25" d="M1175.797,242.542c-0.722,0-1.456-0.022-2.21-0.061c-8.614-0.429-19.707-6.149-23.704-17.695
		c-1.423-4.109-1.075-16.209,0.2-47.201c1.005-24.435,2.657-64.577,0.277-73.642c-2.193-0.438-6.593-0.558-9.955-0.648
		c-7.545-0.205-16.098-0.438-23.352-2.999c-12.435-4.391-14.93-13.603-14.833-20.556c0.18-13,6.521-21.305,19.384-25.388
		c10.508-3.335,24.942-3.842,43.218-4.484c3.265-0.115,6.652-0.233,10.157-0.374l6.254-0.255
		c10.947-0.451,21.287-0.877,30.543-0.877c15.555,0,44.508,0,46.417,20.231c0.735,7.793-1.05,14.336-5.306,19.447
		c-8.766,10.528-25.433,12.003-38.824,13.187c-4.702,0.416-11.01,0.974-13.218,1.908c-1.743,6.436-1.084,35.276-0.598,56.546
		c0.998,43.638,1.013,63.397-3.036,69.47C1190.872,238.662,1184.667,242.542,1175.797,242.542z"/>
</g>
<g id="Layer_7">
	<g>
		<path fill="#9AC5EA" d="M120.718,287.461c-63.388,0-81.156-31.721-85.854-45.359c-6.431-18.67-1.688-38.926,11.532-49.256
			c7.042-5.504,15.018-8.413,23.063-8.413c12.36,0,21.608,6.559,28.36,11.347c4.238,3.006,8.238,5.842,11.164,5.909
			c1.073,0.024,2.114,0.036,3.125,0.036c4.388,0,7.621-0.234,9.97-0.54c-4.672-1.923-10.722-3.983-15.345-5.558
			c-22.977-7.822-54.442-18.533-68.292-46.869c-8.782-17.967-8.873-38.761-0.279-63.57c11.812-34.102,44.936-46.252,71.996-46.252
			c18.538,0,36.846,5.691,50.229,15.614c14.405,10.682,24.021,20.679,29.398,30.563c7.03,12.922,6.856,26.151-0.489,37.25
			c-3.738,5.649-8.209,10.286-13.164,13.762c5.925,3.632,11.552,7.878,16.526,12.956c19.623,20.03,24.187,46.908,13.565,79.887
			c-4.565,14.176-16.255,28.767-32.072,40.031c-16.699,11.894-35.625,18.45-53.291,18.463H120.718z"/>
	</g>
	<g>
		<path fill="#9AC5EA" d="M760.47,297.417c-7.317,0.001-18.418-2.384-29.75-13.747c-7.345-7.363-10.862-16.978-14.936-28.109
			c-3.217-8.793-7.104-19.416-13.842-31.053c-4.17,20.427-8.704,28.098-14.593,33.201c-9.001,7.799-21.908,12.643-33.688,12.643
			c-16.588,0-30.202-9.123-36.418-24.404c-5.666-13.926-2.979-26.178-0.135-39.148c2.746-12.527,6.162-28.107,5.19-54.312
			c-0.731-19.76-2.317-36.25-3.592-49.5c-1.324-13.758-2.278-23.68-1.829-31.981c0.248-4.573,1.001-18.487,13.004-26.691
			c7.53-5.146,17.279-8.099,26.749-8.099c9.777,0,18.711,3.056,25.836,8.837c3.496,2.836,12.547,10.181,18.42,37.476
			c3.544-4.13,5.265-8.25,7.398-13.356c3.072-7.355,6.896-16.508,16.355-23.427c6.387-4.673,13.601-7.143,20.862-7.143
			c7.888,0,22.792,2.996,33.986,23.062c11.538,20.681-0.846,54.231-14.222,70.499c-4.565,5.552-10.145,11.726-15.197,17.14
			c8.385,10.43,18.729,24.703,27.027,40.541c1.431,2.73,34.78,67.143,13.297,92.51C782.17,292.067,771.542,297.417,760.47,297.417
			L760.47,297.417L760.47,297.417z"/>
	</g>
	<g>
		<path fill="#9AC5EA" d="M262.192,275.608c-0.942,0-1.918-0.025-2.983-0.079c-14.231-0.712-31.5-9.829-38-28.597
			c-2.36-6.814-2.327-14.773-1.081-56.426c0.429-14.347,1.406-46.988,0.958-65.167c-8.065-0.243-17.466-0.804-26.162-3.602
			c-17.336-5.578-27.542-19.23-27.302-36.52c0.259-18.679,10.768-32.445,28.833-37.768c11.303-3.331,25.161-3.331,39.832-3.331
			h1.877c7.851,0,14.97-0.025,22.595-0.33c3.247-0.13,6.497-0.271,9.727-0.41l0.131-0.005c11.823-0.511,22.989-0.992,33.531-0.992
			c8.397,0,21.088,0,32.899,2.879c25.385,6.188,30.613,22.366,31.473,31.459c1.137,12.043-2.155,22.761-9.52,30.995
			c-14.248,15.931-38.43,16.362-56.086,16.677c-0.231,0.004-0.48,0.009-0.744,0.014c-0.205,13.399,0.229,34.141,0.475,45.885
			c1.25,59.755,0.862,74.746-5.835,84.787C290.93,263.891,280.946,275.608,262.192,275.608z"/>
	</g>
	<g>
		<path fill="#9AC5EA" d="M557.848,268.889c-7.864,0-35.521-1.385-61.224-19.193c-20.049-13.891-44.131-41.67-45.003-95.123
			c-0.562-34.49,9.551-62.787,30.057-84.105c23.23-24.15,53.884-32.755,74.823-32.755c0.668,0,1.317,0.009,1.955,0.028
			c42.594,1.195,67.215,14.21,73.168,38.683c3.56,14.629,0.671,29.469-7.924,40.712c-8.053,10.531-20.22,16.573-33.382,16.575
			c-9.211,0-18.267-2.827-26.933-8.405c-0.939-0.335-3.453-0.982-6.884-0.982c-5.681,0-10.089,1.58-13.101,4.694
			c-4.351,4.498-6.581,13.114-6.451,24.917c0.301,27.36,10.338,27.36,17.667,27.36c9.571,0,18.944-3.769,20.726-4.524
			c6.93-2.938,13.793-4.429,20.397-4.429c17.492,0,32.553,10.854,38.368,27.653c5.938,17.146,1.097,35.978-12.048,46.859
			C604.394,261.475,582.791,268.889,557.848,268.889z"/>
	</g>
	<g>
		<path fill="#9AC5EA" d="M449.819,269.764c-7.739,0-15.334-1.796-21.964-5.195c-10.566-5.416-14.911-15.301-18.743-24.022
			c-5.85-13.308-8.457-17.911-19.932-17.911c-2.855,0-5.19,1.037-13.513,15.412c-5.544,9.576-11.828,20.431-23.624,25.924
			c-5.713,2.66-11.654,4.01-17.66,4.01c-19.324,0-34.458-14.25-40.339-27.488c-3.776-8.5-2.64-15.75,6.754-43.098
			c5.264-15.328,12.776-35.38,20.609-55.016c8.48-21.252,16.885-40.895,23.668-55.312c13.602-28.909,19.155-33.796,25.003-37.181
			c8.64-5,15.817-7.23,23.277-7.23c7.466,0,13.228,2.326,17.858,4.195c1.223,0.495,2.373,0.959,3.623,1.418
			c9.648,3.543,14.252,10.212,25.92,37.553c6.271,14.691,13.996,34.37,21.755,55.409c7.768,21.063,14.776,41.345,19.735,57.108
			c9.314,29.607,9.209,35.698,7.985,41.61c-3.698,17.834-19.937,29.813-40.409,29.813
			C449.823,269.764,449.82,269.764,449.819,269.764z"/>
	</g>
</g>
<g id="Layer_6">
	<g>
		<path fill="#EBF3FF" d="M120.718,271.079c-53.09,0-67.146-24.175-70.726-34.569c-4.175-12.122-1.544-25.343,6.255-31.438
			c4.263-3.332,8.708-5.021,13.212-5.021c7.262,0,13.283,4.27,19.105,8.398c6.014,4.265,12.232,8.675,20.055,8.853
			c1.197,0.027,2.36,0.041,3.489,0.041c12.384,0,20.592-1.639,25.092-5.012c2.596-1.946,5.25-5.17,5.25-14.324
			c0-7.503-14.846-12.557-30.563-17.908c-21.45-7.303-48.144-16.391-59.071-38.748c-6.816-13.945-6.664-30.728,0.464-51.308
			c9.063-26.166,35.324-35.489,56.877-35.489c15.18,0,30.014,4.544,40.699,12.466c24.76,18.36,33.203,33.88,25.096,46.131
			c-5.96,9.007-13.918,13.968-22.408,13.968c-6.933,0-13.613-3.326-18.811-9.366c-5.884-6.839-16.093-11.996-23.747-11.996
			c-5.448,0-8.065,2.341-8.751,7.827c-1.057,8.459,10.908,13.395,30.74,20.519c16.624,5.972,35.466,12.74,48.252,25.792
			c15.348,15.667,18.542,36.531,9.765,63.785c-7.053,21.901-39.23,47.378-70.144,47.399
			C120.852,271.079,120.721,271.079,120.718,271.079z"/>
	</g>
	<g>
		<path fill="#EBF3FF" d="M760.47,280.153c-6.215,0-12.399-3.041-18.382-9.039c-4.874-4.886-7.694-12.594-11.266-22.355
			c-5.97-16.314-14.688-40.142-39.154-65.133c-0.628,5.611-1.481,12.575-2.533,19.674c-4.558,30.736-8.778,38.006-12.307,41.063
			c-6.116,5.3-15.21,8.724-23.166,8.724c-9.977,0-17.843-5.271-21.582-14.465c-3.818-9.385-1.938-17.955,0.663-29.819
			c2.781-12.687,6.592-30.06,5.546-58.275c-0.749-20.237-2.361-36.991-3.656-50.453c-2.47-25.672-3.709-38.559,4.321-44.048
			c4.854-3.318,11.463-5.298,17.678-5.298c6.044,0,11.478,1.816,15.712,5.252c11.315,9.18,15.306,38.972,16.662,55.257
			c5.838-3.439,14.301-9.297,22.617-18.17c6.183-6.597,8.856-12.995,11.441-19.182c2.67-6.391,5.192-12.426,11.066-16.723
			c3.67-2.685,7.496-4.046,11.373-4.046c7.649,0,14.563,5.143,19.991,14.873c7.001,12.549-1.035,38.66-12.62,52.749
			c-7.62,9.266-18.374,20.534-24.226,26.544c7.342,8.258,22.974,26.987,34.256,48.521c12.613,24.072,24.93,63.512,15.245,74.947
			C772.942,276.901,766.828,280.153,760.47,280.153z"/>
	</g>
	<g>
		<path fill="#EBF3FF" d="M262.192,257.756c-0.72,0-1.453-0.021-2.206-0.06c-8.615-0.431-19.708-6.149-23.704-17.688
			c-1.412-4.076-1.181-16.354-0.162-50.409c0.811-27.093,2.143-71.609-0.387-81.352c-2.367-0.452-7.176-0.572-10.849-0.664
			c-8.144-0.204-17.374-0.436-25.181-2.947c-13.47-4.334-16.182-13.592-16.084-20.595c0.158-11.405,5.96-18.874,17.245-22.198
			c9.142-2.693,21.907-2.693,35.422-2.693h1.877c8.026,0,15.313-0.026,23.216-0.342c3.309-0.132,6.619-0.275,9.908-0.417
			c11.652-0.503,22.658-0.977,32.859-0.977c15.128,0,46.607,0,48.446,19.484c0.695,7.367-1.113,13.519-5.375,18.283
			c-9.604,10.739-28.998,11.086-44.583,11.364c-5.438,0.097-12.703,0.228-15.413,1.055c-1.712,7.231-1.058,38.512-0.574,61.635
			c1.017,48.632,1.027,69.045-3.037,75.138C277.27,253.879,271.064,257.756,262.192,257.756z"/>
	</g>
	<g>
		<path fill="#EBF3FF" d="M557.848,250.929c-6.723,0-30.364-1.183-52.316-16.394c-16.879-11.693-37.157-35.354-37.912-81.658
			c-0.486-29.853,8.061-54.131,25.403-72.161c19.793-20.576,46.565-27.877,63.479-27.877c0.517,0,1.019,0.007,1.512,0.021
			c34.559,0.97,54.104,9.779,58.095,26.182c2.338,9.608,0.529,19.238-4.96,26.419c-4.999,6.538-12.592,10.289-20.832,10.29
			c-0.001,0-0.003,0-0.004,0c-6.328,0-12.704-2.093-18.949-6.219c-1.929-1.273-7.478-3.169-14.86-3.169
			c-6.929,0-16.789,1.655-24.415,9.54c-7.572,7.83-11.318,20.211-11.136,36.803c0.323,29.415,11.336,43.714,33.666,43.714
			c12.255,0,23.608-4.409,26.797-5.762c4.994-2.117,9.814-3.191,14.326-3.191c10.812,0,19.741,6.395,23.305,16.687
			c3.637,10.501,0.829,21.901-6.984,28.368C597.304,244.737,579.065,250.929,557.848,250.929z"/>
	</g>
	<g>
		<path fill="#EBF3FF" d="M466.755,200.743c-4.885-15.529-11.805-35.549-19.484-56.374c-7.67-20.799-15.291-40.213-21.459-54.665
			c-11.475-26.887-14.024-27.824-16.725-28.816c-1.482-0.545-2.809-1.081-4.091-1.599c-4.031-1.627-7.512-3.033-11.87-3.033
			c-4.549,0-9.113,1.519-15.262,5.077c-2.093,1.211-5.989,3.467-18.541,30.145c-6.656,14.148-14.925,33.479-23.284,54.429
			c-7.732,19.383-15.146,39.169-20.338,54.284c-9.251,26.933-8.286,29.104-7.265,31.404c3.212,7.229,12.712,17.984,25.718,17.984
			c3.656,0,7.325-0.846,10.905-2.514c7.228-3.365,11.747-11.172,16.532-19.438c8.182-14.131,14.506-23.395,27.359-23.395
			c22.503,0,28.919,14.596,34.579,27.474c3.16,7.19,5.89,13.399,11.396,16.222c4.382,2.247,9.454,3.435,14.667,3.434
			c12.684,0,22.627-6.854,24.742-17.055C474.749,232.313,475.519,228.599,466.755,200.743z M380.452,163.24l11.734-33.761
			l13.766,33.761C405.952,163.24,395.952,156.97,380.452,163.24z"/>
	</g>
</g>
<g id="Layer_3">
	<g>
		<path fill="#DEBBB9" d="M896.778,266.622c-9.975,0-36.469,0-61.15-14.805c-30.359-18.21-46.531-50.663-48.067-96.458
			c-1.146-34.188,9.823-64.236,31.723-86.896c23.062-23.862,53.522-34.554,73.481-34.566c37.361,0,70.011,20.818,75.957,48.425
			c2.678,12.432-0.586,25.877-8.733,35.965c-7.606,9.421-18.774,14.825-30.64,14.827c-10.545,0-20.836-3.994-30.613-11.874
			c-0.953-0.261-2.725-0.604-5.004-0.604c-3.098,0-8.912,0.625-13.055,4.813c-5.783,5.849-6.889,16.782-6.797,24.925
			c0.141,12.534,2.252,27.476,11.512,27.476c5.13,0,10.787-2.626,12.513-4.097c10.151-8.647,20.743-13.032,31.482-13.032
			c13.441,0,25.813,7.322,33.095,19.587c8.857,14.924,9.279,35.09,1.048,50.182C951.557,252.439,925.356,266.622,896.778,266.622z"
			/>
	</g>
	<g>
		<path fill="#DEBBB9" d="M1095.395,323.462c-11.319,0-21.23-5.427-30.3-16.59c-9.396-11.563-12.101-26-7.616-40.651
			c10.451-34.141,57.287-62.443,96.381-74.293c13.054-3.957,27.816-5.963,43.877-5.963c46.874,0,93.704,17.039,106.94,22.261
			c5.134,2.025,11.122,3.188,16.43,3.188c5.194,0,7.813-0.806,9.162-1.778c-4.747-2.719-13.5-6.331-17.298-7.898
			c-17.099-7.055-38.377-15.836-53.513-33.689c-18.336-21.631-22.596-50.655-12.663-86.269C1256.387,47.393,1290.625,32,1320.3,32
			c18.117,0,35.208,5.275,48.124,14.853c10.7,7.935,35.759,26.517,25.566,59.219c-4.612,14.789-17.611,23.977-33.925,23.979
			c-0.368,0-0.735-0.005-1.105-0.014c12.91,4.75,27.003,11.078,38.329,21.849c17.779,16.907,24.791,40.634,20.842,70.521
			c-6.884,52.086-49.302,76.609-85.8,77.353c-0.543,0.01-1.072,0.016-1.596,0.016c-19.419,0-41.578-7.087-65.038-14.591
			c-23.266-7.441-47.323-15.137-66.702-15.137c-2.274,0-4.453,0.11-6.476,0.327c-30.803,3.308-47.244,19.426-60.454,32.377
			c-10.389,10.184-21.126,20.709-36.669,20.711H1095.395z"/>
	</g>
	<g>
		<path fill="#DEBBB9" d="M1095.02,260.911c-7.567,0-15.135-1.896-21.885-5.484c-11.629-6.179-15.454-18.216-18.248-27.006
			c-4.447-13.996-5.736-15.438-13.795-15.438c-0.287,0-0.574,0.004-0.869,0.012c-10.134,0.26-11.362,2.611-16.184,15.057
			c-3.517,9.075-8.33,21.498-21.305,27.762c-5.766,2.784-11.775,4.196-17.861,4.196c-19.428,0-34.574-14.691-40.424-28.342
			c-3.384-7.895-2.947-14.504,6.457-43.068c5.082-15.44,12.342-35.598,19.916-55.303c8.205-21.347,16.364-41.096,22.975-55.609
			c12.091-26.543,17.755-33.471,24.555-37.551c8.695-5.216,15.94-7.543,23.493-7.543c7.574,0,13.382,2.432,18.05,4.386
			c1.233,0.517,2.377,0.995,3.609,1.464c9.564,3.644,14.373,10.769,24.497,36.305c5.548,13.992,12.231,32.675,18.82,52.608
			c7.646,23.126,25.421,79.041,25.349,98.726C1132.097,245.936,1116.126,260.909,1095.02,260.911L1095.02,260.911z"/>
	</g>
	<g>
		<path fill="#DEBBB9" d="M1176.026,258.859c-0.952,0-1.939-0.026-3.018-0.081c-14.262-0.71-31.556-9.779-38.016-28.44
			c-2.329-6.727-2.217-15.439-0.667-53.094c0.521-12.676,1.695-41.225,1.47-57.773c-7.39-0.276-15.854-0.95-23.84-3.771
			c-16.201-5.721-25.736-19.128-25.505-35.864c0.276-19.899,11.124-34.253,30.542-40.417c12.597-3.999,27.998-4.54,47.497-5.224
			l0.247-0.009c3.164-0.111,6.442-0.226,9.832-0.362l6.241-0.255c11.141-0.458,21.623-0.89,31.195-0.89
			c8.368,0,21.015,0,32.474,3.076c24.001,6.442,29.018,22.596,29.873,31.652c1.134,12.019-1.958,22.804-8.939,31.189
			c-12.941,15.543-33.957,17.493-49.413,18.859c-0.213,12.183,0.227,31.378,0.474,42.177c1.236,54.084,0.836,68.879-5.72,78.712
			C1204.882,247.151,1194.894,258.859,1176.026,258.859z"/>
	</g>
</g>
<g id="Layer_5">
	<g>
		<path fill="#F9F5D2" d="M896.588,249.622c-8.762,0-32.037,0-52.918-12.525c-25.404-15.237-38.965-43.255-40.308-83.273
			c-0.998-29.754,8.42-55.771,27.236-75.24c19.698-20.383,45.94-29.676,61.986-29.685c29.515,0,55.983,15.722,60.306,35.794
			c1.646,7.636-0.477,16.274-5.539,22.543c-4.623,5.726-11.085,8.879-18.194,8.88c-7.157,0-14.452-3.112-21.683-9.252
			c-1.577-1.34-6.943-3.227-13.933-3.227c-5.593,0-16.204,1.243-24.431,9.563c-7.761,7.848-11.603,20.079-11.42,36.354
			c0.223,19.751,5.176,43.296,27.512,43.296c8.924,0,18.27-3.982,22.888-7.917c7.175-6.112,14.276-9.212,21.106-9.212
			c7.854,0,14.901,4.285,19.336,11.755c5.982,10.078,6.295,24.204,0.76,34.353C940.084,238.712,919.397,249.622,896.588,249.622z"/>
	</g>
	<g>
		<path fill="#F9F5D2" d="M1095.207,306.462c-6.279,0-11.962-3.393-17.881-10.679c-6.016-7.402-7.652-16.352-4.736-25.88
			c8.259-26.977,50.33-52.936,85.723-63.663c11.55-3.501,24.751-5.275,39.236-5.275c44.047,0,88.494,16.184,101.068,21.145
			c7.035,2.775,14.955,4.304,22.3,4.305c0,0,0.002,0,0.003,0c10.712,0,23.996-3.074,26.462-17.72
			c1.566-9.303-7.479-14.075-28.496-22.747c-16.306-6.729-34.786-14.354-47.41-29.246c-14.902-17.58-17.995-41.009-9.456-71.623
			C1269.356,58.774,1296.483,47,1320.112,47c14.708,0,28.415,4.157,38.594,11.705c13.477,9.993,26.107,21.438,19.821,41.605
			c-2.524,8.096-9.322,12.739-18.651,12.74c-7.294,0-15.614-2.863-22.256-7.661c-6.468-4.672-24.138-12.722-27.661,0.571
			c-5.389,20.328,7.926,25.891,33.203,34.55c14.515,4.973,30.966,10.608,42.914,21.97c14.057,13.367,19.292,31.956,16.005,56.831
			c-5.646,42.728-40.381,62.843-70.264,63.451c-0.418,0.008-0.846,0.013-1.27,0.013c-0.002,0-0.004,0-0.007,0
			c-16.916,0-37.92-6.718-60.157-13.83c-24.437-7.816-49.705-15.897-71.576-15.897c-2.841,0-5.594,0.141-8.185,0.419
			c-36.326,3.9-55.758,22.95-69.946,36.86C1111.48,299.341,1104.218,306.461,1095.207,306.462z"/>
	</g>
	<g>
		<path fill="#F9F5D2" d="M1091.442,131.377c-6.495-19.648-13.065-38.021-18.503-51.733c-10-25.224-12.705-26.254-15.321-27.25
			c-1.482-0.565-2.809-1.12-4.091-1.657c-4.031-1.688-7.512-3.145-11.87-3.145c-4.549,0-9.113,1.574-15.262,5.263
			c-3.108,1.866-7.468,6.846-18.226,30.462c-6.482,14.233-14.509,33.666-22.601,54.718c-7.484,19.471-14.647,39.359-19.653,54.565
			c-8.933,27.134-7.924,29.487-6.948,31.763c3.212,7.495,12.711,18.645,25.719,18.645c3.655,0,7.324-0.876,10.904-2.604
			c7.292-3.521,10.366-11.458,13.341-19.134c4.928-12.718,9.581-24.729,30.705-25.271c0.431-0.011,0.85-0.017,1.268-0.017
			c20.592,0,24.889,13.519,29.044,26.593c2.388,7.512,4.642,14.606,10.509,17.724c4.445,2.363,9.416,3.612,14.375,3.612
			c12.412-0.001,21.109-7.768,21.15-18.888C1116.034,210.868,1103.339,167.367,1091.442,131.377z M1029.982,153.5l11.734-35
			l13.766,35C1055.482,153.5,1045.482,147,1029.982,153.5z"/>
	</g>
	<g>
		<path fill="#F9F5D2" d="M1175.837,241.859c-0.722,0-1.456-0.022-2.21-0.061c-8.614-0.429-19.707-6.149-23.704-17.695
			c-1.423-4.109-1.075-16.209,0.2-47.201c1.005-24.435,2.657-64.577,0.277-73.642c-2.193-0.438-6.593-0.558-9.955-0.648
			c-7.545-0.205-16.098-0.438-23.352-2.999c-12.435-4.391-14.93-13.603-14.833-20.556c0.18-13,6.521-21.305,19.384-25.388
			c10.508-3.335,24.942-3.842,43.218-4.484c3.265-0.115,6.652-0.233,10.157-0.374l6.254-0.255
			c10.947-0.451,21.287-0.877,30.543-0.877c15.555,0,44.508,0,46.417,20.231c0.735,7.793-1.05,14.336-5.306,19.447
			c-8.766,10.528-25.433,12.003-38.824,13.187c-4.702,0.416-11.01,0.974-13.218,1.908c-1.743,6.436-1.084,35.276-0.598,56.546
			c0.998,43.638,1.013,63.397-3.036,69.47C1190.912,237.979,1184.708,241.859,1175.837,241.859z"/>
	</g>
</g>
</svg>
